<svg xmlns="http://www.w3.org/2000/svg" xmlns:xlink="http://www.w3.org/1999/xlink" version="1.1" width="512" height="512" viewBox="0 0 512 512" xml:space="preserve">
<desc>Created with Fabric.js 5.2.4</desc>
<defs>
</defs>
<rect x="0" y="0" width="100%" height="100%" fill="transparent"></rect>
<g transform="matrix(1 0 0 1 256 256)" id="9520a68f-8b4e-4c55-b7b6-de45ee663e6a"  >
<rect style="stroke: none; stroke-width: 1; stroke-dasharray: none; stroke-linecap: butt; stroke-dashoffset: 0; stroke-linejoin: miter; stroke-miterlimit: 4; fill: rgb(255,255,255); fill-rule: nonzero; opacity: 1; visibility: hidden;" vector-effect="non-scaling-stroke"  x="-256" y="-256" rx="0" ry="0" width="512" height="512" />
</g>
<g transform="matrix(Infinity NaN NaN Infinity 0 0)" id="407048d6-5c58-462e-a95e-37aab840b44a"  >
</g>
<g transform="matrix(0.85 0 0 0.85 256 256)"  >
<path style="stroke: rgb(6,5,5); stroke-width: 23; stroke-dasharray: none; stroke-linecap: butt; stroke-dashoffset: 0; stroke-linejoin: miter; stroke-miterlimit: 4; fill: rgb(254,245,1); fill-rule: nonzero; opacity: 1;"  transform=" translate(-224, -256)" d="M 349.4 44.6 C 355.29999999999995 30.900000000000002 350.9 14.900000000000002 338.79999999999995 6.100000000000001 C 326.69999999999993 -2.6999999999999993 310.19999999999993 -1.8999999999999986 298.9 7.900000000000001 L 42.89999999999998 231.9 C 32.89999999999998 240.70000000000002 29.299999999999976 254.8 33.99999999999998 267.2 C 38.69999999999998 279.59999999999997 50.7 288 64 288 L 175.5 288 L 98.6 467.4 C 92.69999999999999 481.09999999999997 97.1 497.09999999999997 109.19999999999999 505.9 C 121.29999999999998 514.7 137.79999999999998 513.9 149.1 504.09999999999997 L 405.1 280.09999999999997 C 415.1 271.29999999999995 418.70000000000005 257.2 414 244.79999999999995 C 409.29999999999995 232.39999999999992 397.4 224.09999999999997 384 224.09999999999997 L 272.5 224.09999999999997 L 349.4 44.6 z" stroke-linecap="round" />
</g>
</svg>